<svg id="visual" viewBox="0 0 900 600" width="900" height="600" xmlns="http://www.w3.org/2000/svg" xmlns:xlink="http://www.w3.org/1999/xlink" version="1.1"><path d="M0 97L82 61L164 67L245 103L327 43L409 61L491 49L573 49L655 97L736 79L818 79L900 61L900 0L818 0L736 0L655 0L573 0L491 0L409 0L327 0L245 0L164 0L82 0L0 0Z" fill="#00cc8e"></path><path d="M0 181L82 181L164 157L245 145L327 169L409 151L491 127L573 91L655 145L736 169L818 133L900 151L900 59L818 77L736 77L655 95L573 47L491 47L409 59L327 41L245 101L164 65L82 59L0 95Z" fill="#00b98a"></path><path d="M0 313L82 343L164 337L245 349L327 265L409 331L491 283L573 223L655 283L736 277L818 253L900 391L900 149L818 131L736 167L655 143L573 89L491 125L409 149L327 167L245 143L164 155L82 179L0 179Z" fill="#00a784"></path><path d="M0 469L82 517L164 457L245 499L327 451L409 481L491 481L573 439L655 469L736 511L818 433L900 487L900 389L818 251L736 275L655 281L573 221L491 281L409 329L327 263L245 347L164 335L82 341L0 311Z" fill="#00957c"></path><path d="M0 601L82 601L164 601L245 601L327 601L409 601L491 601L573 601L655 601L736 601L818 601L900 601L900 485L818 431L736 509L655 467L573 437L491 479L409 479L327 449L245 497L164 455L82 515L0 467Z" fill="#038373"></path></svg>